<svg fill="none" xmlns="http://www.w3.org/2000/svg" viewBox="0 0 130 27" role="img" aria-hidden="true" width="130" height="27"><path fill="#D5FF00" d="M27.083 0H0v27h27.083V0Z"></path><path fill="#191823" d="M23.32 20.626H3.764v2.623H23.32v-2.623ZM13.542 19.121l1.865-1.848 5.66-5.643-1.887-1.881-4.323 4.31V3.375h-2.63v10.684l-4.324-4.31-1.887 1.88 5.66 5.644 1.866 1.848ZM35.333 5.472h6.85c4.348 0 7.147 3.496 7.147 8.285 0 2.633-.889 4.947-2.596 6.378-1.208.999-2.777 1.566-4.826 1.566h-6.575V5.473Zm6.347 13.39c3.096 0 4.304-1.883 4.304-5.108 0-3.225-1.41-5.47-4.212-5.47h-3.138v10.577h3.049-.003ZM49.821 15.891c0-3.471 2.483-6.15 6.1-6.15 3.618 0 6.1 2.676 6.1 6.15s-2.482 6.151-6.1 6.151c-3.617 0-6.1-2.677-6.1-6.15Zm9.06 0c0-2.27-1.069-3.812-2.96-3.812-1.89 0-2.96 1.542-2.96 3.812 0 2.27 1.047 3.79 2.96 3.79 1.914 0 2.96-1.52 2.96-3.79ZM62.66 15.891c0-3.471 2.277-6.15 5.829-6.15 3.026 0 4.895 1.746 5.303 4.265h-3.026c-.206-1.021-1.003-1.794-2.141-1.794-1.866 0-2.824 1.431-2.824 3.677 0 2.244.888 3.675 2.777 3.675 1.252 0 2.14-.658 2.343-1.973h2.982c-.205 2.474-2.14 4.448-5.259 4.448-3.687 0-5.986-2.677-5.986-6.15l.002.002ZM82.092 21.699v-1.362h-.07c-.797 1.066-1.708 1.68-3.346 1.68-2.596 0-4.05-1.658-4.05-4.2v-7.761h3.073v7.239c0 1.362.614 2.109 1.935 2.109 1.458 0 2.344-1.09 2.344-2.633v-6.718h3.096v11.643h-2.982v.003ZM100.156 5.544h3.096v2.887h-3.096V5.544Zm0 4.515h3.096v11.643h-3.096V10.058ZM107.612 22.04c.25.725.911 1.292 2.343 1.292 1.752 0 2.597-.839 2.597-2.428v-1.27h-.07c-.683.772-1.572 1.362-3.051 1.362-2.597 0-5.146-2.043-5.146-5.561 0-3.519 2.094-5.697 5.054-5.697 1.458 0 2.527.567 3.232 1.544h.044v-1.226h2.982v10.757c0 1.633-.524 2.746-1.388 3.54-.98.908-2.482 1.318-4.212 1.318-3.188 0-5.145-1.362-5.464-3.632h3.079Zm5.098-6.672c0-1.702-.911-3.156-2.777-3.156-1.571 0-2.618 1.227-2.618 3.178 0 1.952 1.047 3.13 2.64 3.13 1.958 0 2.755-1.43 2.755-3.155v.003ZM119.957 11.645h.069c.797-1.248 1.866-1.907 3.46-1.907 2.413 0 4.029 1.816 4.029 4.357v7.604h-3.096v-7.15c0-1.249-.728-2.134-2.027-2.134-1.366 0-2.368 1.09-2.368 2.676v6.605h-3.096V10.053h3.026v1.59l.003.002ZM93.101 11.919c-2.413-.523-3.551-.908-3.551-2.223 0-1.157 1.16-1.907 2.937-1.907 1.622 0 2.858.758 3.113 2.27h3.177c-.323-3.153-2.669-4.88-6.265-4.88-3.595 0-6.236 1.658-6.236 4.858 0 3.382 2.663 4.152 5.578 4.81 2.483.568 4.03.886 4.03 2.475 0 1.498-1.48 2.088-3.166 2.088-2.321 0-3.438-.773-3.665-2.724H85.82c.113 3.427 2.618 5.378 7.033 5.378 3.665 0 6.328-1.838 6.328-5.13 0-3.495-2.732-4.29-6.078-5.015H93.1ZM128.77 12.207c-.68 0-1.23-.551-1.23-1.226a1.23 1.23 0 0 1 2.46 0 1.23 1.23 0 0 1-1.23 1.226Zm0-2.262c-.572 0-1.038.465-1.038 1.036a1.038 1.038 0 0 0 2.076 0c0-.57-.466-1.036-1.038-1.036Z"></path><path fill="#191823" d="M128.348 10.35h.403c.166 0 .28 0 .391.09a.383.383 0 0 1 .139.31c0 .242-.178.325-.247.347l.28.51h-.269l-.25-.466h-.211v.465h-.233v-1.254l-.003-.002Zm.233.202v.393h.083c.081 0 .112 0 .156-.003.053 0 .222-.011.222-.194 0-.028 0-.119-.1-.169-.05-.025-.111-.027-.25-.027h-.111Z"></path></svg>